<svg xmlns="http://www.w3.org/2000/svg" width="16" height="16"><g fill="#CCC" fill-rule="nonzero"><path d="M11.75 13.224h-7.5a.416.416 0 0 1-.417-.417V4.891a.416.416 0 1 1 .834 0v7.5h6.666v-7.5a.416.416 0 1 1 .834 0v7.916c0 .23-.187.417-.417.417Zm-2.917-10v-.807A.416.416 0 0 0 8.417 2h-.834a.416.416 0 0 0-.416.417v.807h-3.75a.416.416 0 1 0 0 .833h9.166a.416.416 0 1 0 0-.833h-3.75Z"/><path d="M6.751 10.724a.416.416 0 0 1-.416-.417V6.141a.416.416 0 1 1 .833 0v4.166c0 .23-.188.417-.417.417Zm2.5-.003a.416.416 0 0 1-.416-.416V6.138a.416.416 0 1 1 .833 0v4.167c0 .23-.186.416-.417.416Z"/></g></svg>